<?xml version="1.0" encoding="utf-8"?>
<!-- Generator: Adobe Illustrator 17.0.0, SVG Export Plug-In . SVG Version: 6.00 Build 0)  -->
<!DOCTYPE svg PUBLIC "-//W3C//DTD SVG 1.1//EN" "http://www.w3.org/Graphics/SVG/1.1/DTD/svg11.dtd">
<svg version="1.1" id="Layer_1" xmlns="http://www.w3.org/2000/svg" xmlns:xlink="http://www.w3.org/1999/xlink" x="0px" y="0px"
	 width="17.6px" height="14.025px" viewBox="0 0 17.6 14.025" enable-background="new 0 0 17.6 14.025" xml:space="preserve">
<g id="SHOPPING_CART">
	<g>
		<path fill-rule="evenodd" clip-rule="evenodd" fill="#FFFFFF" d="M15.052,8.588L15.052,8.588l2.475-5.5l-0.001-0.001
			C17.573,2.984,17.6,2.871,17.6,2.75c0-0.456-0.369-0.825-0.825-0.825H4.559l-0.48-1.373L4.076,0.554C3.963,0.232,3.66,0,3.3,0
			H0.825C0.369,0,0,0.37,0,0.825S0.369,1.65,0.825,1.65h1.89l3.176,9.075H4.4c-0.911,0-1.65,0.739-1.65,1.65
			c0,0.911,0.739,1.65,1.65,1.65s1.65-0.739,1.65-1.65h7.7c0,0.911,0.739,1.65,1.65,1.65c0.911,0,1.65-0.739,1.65-1.65
			c0-0.911-0.739-1.65-1.65-1.65H7.639L7.227,9.548l7.128-0.475C14.666,9.053,14.93,8.86,15.052,8.588z M6.662,7.932L5.137,3.575
			h10.363L13.751,7.46L6.662,7.932z"/>
	</g>
</g>
</svg>
