<?xml version="1.0" encoding="utf-8"?>
<!-- Generator: Adobe Illustrator 17.0.0, SVG Export Plug-In . SVG Version: 6.00 Build 0)  -->
<!DOCTYPE svg PUBLIC "-//W3C//DTD SVG 1.1//EN" "http://www.w3.org/Graphics/SVG/1.1/DTD/svg11.dtd">
<svg version="1.1" id="Layer_1" xmlns="http://www.w3.org/2000/svg" xmlns:xlink="http://www.w3.org/1999/xlink" x="0px" y="0px"
	 width="17.6px" height="17.6px" viewBox="0 0 17.6 17.6" enable-background="new 0 0 17.6 17.6" xml:space="preserve">
<g id="MAGNIFYING_GLASS">
	<g>
		<path fill-rule="evenodd" clip-rule="evenodd" fill="#FFFFFF" d="M17.117,14.783l-4.836-4.836C12.861,8.965,13.2,7.824,13.2,6.6
			c0-3.645-2.955-6.6-6.6-6.6S0,2.955,0,6.6c0,3.645,2.955,6.6,6.6,6.6c1.224,0,2.365-0.339,3.348-0.919l4.836,4.836
			c0.299,0.299,0.711,0.483,1.167,0.483c0.911,0,1.65-0.739,1.65-1.65C17.6,15.494,17.415,15.082,17.117,14.783z M6.6,11.55
			c-2.734,0-4.95-2.216-4.95-4.95S3.866,1.65,6.6,1.65c2.734,0,4.95,2.216,4.95,4.95S9.334,11.55,6.6,11.55z"/>
	</g>
</g>
</svg>
