<?xml version="1.0" encoding="utf-8"?>
<!-- Generator: Adobe Illustrator 17.0.0, SVG Export Plug-In . SVG Version: 6.00 Build 0)  -->
<!DOCTYPE svg PUBLIC "-//W3C//DTD SVG 1.1//EN" "http://www.w3.org/Graphics/SVG/1.1/DTD/svg11.dtd">
<svg version="1.1" id="Layer_1" xmlns="http://www.w3.org/2000/svg" xmlns:xlink="http://www.w3.org/1999/xlink" x="0px" y="0px"
	 width="32px" height="30.5px" viewBox="0 0 32 30.5" enable-background="new 0 0 32 30.5" xml:space="preserve">
<g id="ALARM">
	<g>
		<path fill-rule="evenodd" clip-rule="evenodd" fill="#9BD6CE" d="M22,14.499h-4.5V8c0-0.828-0.672-1.5-1.5-1.5S14.5,7.172,14.5,8
			v8c0,0.829,0.672,1.5,1.5,1.5h6c0.828,0,1.5-0.672,1.5-1.5C23.5,15.171,22.828,14.499,22,14.499z M9.706,1.287
			C8.685,0.483,7.4,0,6,0C2.686,0,0,2.686,0,6c0,1.4,0.483,2.685,1.287,3.706C2.904,5.931,5.931,2.904,9.706,1.287z M16,1.5
			C7.992,1.5,1.5,7.992,1.5,16c0,3.846,1.508,7.332,3.951,9.928l-2.012,2.012C3.168,28.21,3,28.586,3,28.999
			c0,0.828,0.672,1.5,1.5,1.5c0.414,0,0.789-0.168,1.061-0.439l2.163-2.164C10.072,29.534,12.921,30.5,16,30.5
			c3.085,0,5.939-0.97,8.29-2.613l2.179,2.179c0.268,0.269,0.639,0.435,1.049,0.435c0.819,0,1.483-0.664,1.483-1.483
			c0-0.409-0.166-0.78-0.434-1.049l-2.028-2.028c2.45-2.597,3.963-6.088,3.963-9.94C30.5,7.992,24.008,1.5,16,1.5z M16,27.5
			C9.649,27.5,4.5,22.351,4.5,16C4.5,9.648,9.649,4.5,16,4.5c6.351,0,11.5,5.149,11.5,11.5C27.5,22.351,22.351,27.5,16,27.5z
			 M26.126,0c-1.371,0-2.629,0.473-3.628,1.26c3.696,1.583,6.659,4.547,8.242,8.243c0.787-1,1.26-2.258,1.26-3.629
			C32,2.63,29.37,0,26.126,0z"/>
	</g>
</g>
</svg>
