<?xml version="1.0" encoding="utf-8"?>
<!-- Generator: Adobe Illustrator 17.0.0, SVG Export Plug-In . SVG Version: 6.00 Build 0)  -->
<!DOCTYPE svg PUBLIC "-//W3C//DTD SVG 1.1//EN" "http://www.w3.org/Graphics/SVG/1.1/DTD/svg11.dtd">
<svg version="1.1" id="Layer_1" xmlns="http://www.w3.org/2000/svg" xmlns:xlink="http://www.w3.org/1999/xlink" x="0px" y="0px"
	 width="32px" height="32px" viewBox="0 0 32 32" enable-background="new 0 0 32 32" xml:space="preserve">
<g id="LINE_GRAPH">
	<g>
		<path fill-rule="evenodd" clip-rule="evenodd" fill="#9BD6CE" d="M6,19.017c0.314,0,0.606-0.097,0.847-0.262l3.136-1.96
			l6.656,4.438c0.244,0.172,0.541,0.272,0.861,0.272c0.328,0,0.632-0.106,0.878-0.284l0,0.001l8.5-6l0-0.001
			c0.376-0.272,0.622-0.715,0.622-1.215c0-0.828-0.672-1.5-1.5-1.5c-0.331,0-0.637,0.107-0.885,0.289l-7.638,5.391l-6.631-4.42
			l-0.006,0.009c-0.24-0.163-0.529-0.258-0.84-0.258c-0.288,0-0.556,0.081-0.785,0.222l-0.001-0.001l-4,2.5l0.001,0.001
			C4.786,16.503,4.5,16.977,4.5,17.517C4.5,18.346,5.171,19.017,6,19.017z M30.5,0h-29C0.672,0,0,0.672,0,1.5v29
			C0,31.328,0.672,32,1.5,32h29c0.828,0,1.5-0.672,1.5-1.5v-29C32,0.672,31.328,0,30.5,0z M29,29H3V3h26V29z"/>
	</g>
</g>
</svg>
