<?xml version="1.0" encoding="utf-8"?>
<!-- Generator: Adobe Illustrator 17.0.0, SVG Export Plug-In . SVG Version: 6.00 Build 0)  -->
<!DOCTYPE svg PUBLIC "-//W3C//DTD SVG 1.1//EN" "http://www.w3.org/Graphics/SVG/1.1/DTD/svg11.dtd">
<svg version="1.1" id="Layer_1" xmlns="http://www.w3.org/2000/svg" xmlns:xlink="http://www.w3.org/1999/xlink" x="0px" y="0px"
	 width="31px" height="28px" viewBox="0 0 31 28" enable-background="new 0 0 31 28" xml:space="preserve">
<g id="COMPUTER__x2F__OK">
	<g>
		<path fill-rule="evenodd" clip-rule="evenodd" fill="#9BD6CE" d="M13.439,13.561C13.711,13.832,14.086,14,14.5,14
			c0.414,0,0.789-0.168,1.061-0.439l4-4C19.832,9.289,20,8.914,20,8.5C20,7.671,19.328,7,18.5,7c-0.414,0-0.789,0.167-1.061,0.439
			L14.5,10.378l-0.939-0.939C13.289,9.168,12.914,9,12.5,9C11.672,9,11,9.671,11,10.5c0,0.414,0.168,0.789,0.439,1.06L13.439,13.561
			z M29.5,0h-28C0.672,0,0,0.671,0,1.5v20C0,22.328,0.672,23,1.5,23H11v2.5l-2,2V28h13v-0.5l-2-2V23h9.5c0.828,0,1.5-0.672,1.5-1.5
			v-20C31,0.671,30.328,0,29.5,0z M29,19H2V2h27V19z"/>
	</g>
</g>
</svg>
