<?xml version="1.0" encoding="utf-8"?>
<!-- Generator: Adobe Illustrator 17.0.0, SVG Export Plug-In . SVG Version: 6.00 Build 0)  -->
<!DOCTYPE svg PUBLIC "-//W3C//DTD SVG 1.1//EN" "http://www.w3.org/Graphics/SVG/1.1/DTD/svg11.dtd">
<svg version="1.1" id="Layer_1" xmlns="http://www.w3.org/2000/svg" xmlns:xlink="http://www.w3.org/1999/xlink" x="0px" y="0px"
	 width="32px" height="32px" viewBox="0 0 32 32" enable-background="new 0 0 32 32" xml:space="preserve">
<g id="BOOK_2">
	<g>
		<path fill-rule="evenodd" clip-rule="evenodd" fill="#9BD6CE" d="M5.379,16.365l5.5,2.5v-0.001C11.068,18.951,11.279,19,11.5,19
			c0.828,0,1.5-0.672,1.5-1.5c0-0.607-0.361-1.13-0.879-1.366l-5.5-2.5C6.431,13.548,6.221,13.5,6,13.5c-0.828,0-1.5,0.671-1.5,1.5
			C4.5,15.607,4.861,16.129,5.379,16.365z M5.379,10.865l5.5,2.5c0.189,0.086,0.399,0.135,0.621,0.135c0.828,0,1.5-0.672,1.5-1.5
			c0-0.607-0.361-1.13-0.879-1.366l-5.5-2.5C6.431,8.048,6.221,8,6,8C5.172,8,4.5,8.671,4.5,9.5
			C4.5,10.107,4.861,10.629,5.379,10.865z M5.379,21.865l5.5,2.5c0.189,0.086,0.399,0.135,0.621,0.135c0.828,0,1.5-0.672,1.5-1.5
			c0-0.607-0.361-1.129-0.879-1.366l-5.5-2.5C6.431,19.048,6.221,19,6,19c-0.828,0-1.5,0.672-1.5,1.5
			C4.5,21.107,4.861,21.629,5.379,21.865z M20.5,24.5c0.221,0,0.431-0.048,0.621-0.135l5.5-2.5c0.519-0.236,0.879-0.759,0.879-1.366
			c0-0.828-0.672-1.5-1.5-1.5c-0.221,0-0.431,0.048-0.621,0.135l-5.5,2.5C19.361,21.87,19,22.393,19,23
			C19,23.828,19.672,24.5,20.5,24.5z M20.5,13.5c0.221,0,0.431-0.048,0.621-0.135l5.5-2.5C27.139,10.629,27.5,10.107,27.5,9.5
			C27.5,8.671,26.828,8,26,8c-0.221,0-0.431,0.048-0.621,0.135l-5.5,2.5C19.361,10.87,19,11.393,19,12
			C19,12.828,19.672,13.5,20.5,13.5z M30.5,0c-0.203,0-0.397,0.041-0.573,0.114l-0.003,0.001c-0.004,0.001-0.009,0.004-0.013,0.005
			L16,5.876L2.089,0.12C2.085,0.119,2.08,0.116,2.076,0.115L2.074,0.114h0C1.897,0.041,1.703,0,1.5,0C0.672,0,0,0.671,0,1.5v23
			c0,0.628,0.387,1.166,0.935,1.389l14.471,5.988C15.588,31.956,15.789,32,16,32c0.211,0,0.412-0.044,0.594-0.123l14.471-5.988
			C31.613,25.666,32,25.128,32,24.5v-23C32,0.671,31.328,0,30.5,0z M14.5,28.256L3,23.497V3.744l11.5,4.759V28.256z M29,23.497
			l-11.5,4.759V8.503L29,3.744V23.497z M20.5,19c0.221,0,0.431-0.048,0.621-0.135v0.001l5.5-2.5C27.139,16.129,27.5,15.607,27.5,15
			c0-0.828-0.672-1.5-1.5-1.5c-0.221,0-0.431,0.048-0.621,0.134l-5.5,2.5C19.361,16.37,19,16.893,19,17.5
			C19,18.328,19.672,19,20.5,19z"/>
	</g>
</g>
</svg>
