<?xml version="1.0" encoding="utf-8"?>
<!-- Generator: Adobe Illustrator 17.0.0, SVG Export Plug-In . SVG Version: 6.00 Build 0)  -->
<!DOCTYPE svg PUBLIC "-//W3C//DTD SVG 1.1//EN" "http://www.w3.org/Graphics/SVG/1.1/DTD/svg11.dtd">
<svg version="1.1" id="Layer_1" xmlns="http://www.w3.org/2000/svg" xmlns:xlink="http://www.w3.org/1999/xlink" x="0px" y="0px"
	 width="32px" height="30.5px" viewBox="0 0 32 30.5" enable-background="new 0 0 32 30.5" xml:space="preserve">
<g id="HOME">
	<g>
		<path fill-rule="evenodd" clip-rule="evenodd" fill="#9BD6CE" d="M3,18.5V29c0,0.828,0.672,1.5,1.5,1.5h14v-12h6v12h3
			c0.828,0,1.5-0.672,1.5-1.5V18.5l-13-13L3,18.5z M13.5,24.5h-6v-6h6V24.5z M31.594,14.98l0.003-0.004L26,9.379V5
			c0-0.829-0.672-1.5-1.5-1.5S23,4.172,23,5v1.379l-5.902-5.902l-0.001,0.001c-0.239-0.256-0.566-0.428-0.933-0.468
			c-0.001-0.001-0.003-0.001-0.004-0.001c-0.022-0.002-0.045-0.004-0.068-0.006c-0.004,0-0.008-0.001-0.013-0.001
			C16.053,0.001,16.027,0,16.001,0H16c-0.425,0-0.808,0.177-1.081,0.461L0.461,14.919C0.177,15.192,0,15.575,0,16
			c0,0.829,0.672,1.5,1.5,1.5c0.41,0,0.782-0.165,1.053-0.432l0.001,0.001L16,3.622v0.001l0.038,0.036l0,0.001l13.438,13.438
			l0.004-0.004c0.268,0.25,0.625,0.405,1.02,0.405c0.828,0,1.5-0.671,1.5-1.5C32,15.605,31.844,15.248,31.594,14.98z"/>
	</g>
</g>
</svg>
