<?xml version="1.0" encoding="utf-8"?>
<!-- Generator: Adobe Illustrator 17.0.0, SVG Export Plug-In . SVG Version: 6.00 Build 0)  -->
<!DOCTYPE svg PUBLIC "-//W3C//DTD SVG 1.1//EN" "http://www.w3.org/Graphics/SVG/1.1/DTD/svg11.dtd">
<svg version="1.1" id="Layer_1" xmlns="http://www.w3.org/2000/svg" xmlns:xlink="http://www.w3.org/1999/xlink" x="0px" y="0px"
	 width="32px" height="32px" viewBox="0 0 32 32" enable-background="new 0 0 32 32" xml:space="preserve">
<g id="IMAGE">
	<g>
		<path fill-rule="evenodd" clip-rule="evenodd" fill="#9BD6CE" d="M20,7.499h4.5V12c0,0.828,0.672,1.5,1.5,1.5
			c0.828,0,1.5-0.672,1.5-1.5V4.5H20c-0.828,0-1.5,0.672-1.5,1.5S19.172,7.499,20,7.499z M20,27.5h7.5V20c0-0.828-0.672-1.5-1.5-1.5
			c-0.828,0-1.5,0.672-1.5,1.5v4.5H20V24.5c-0.828,0-1.5,0.671-1.5,1.5S19.172,27.5,20,27.5z M13.5,26c0-0.828-0.672-1.5-1.5-1.5
			v-0.001H7.5V20c0-0.828-0.672-1.5-1.5-1.5c-0.828,0-1.5,0.672-1.5,1.5v7.5H12C12.828,27.5,13.5,26.828,13.5,26z M30.5,0h-29
			C0.672,0,0,0.671,0,1.5v29C0,31.328,0.672,32,1.5,32h29c0.828,0,1.5-0.672,1.5-1.5v-29C32,0.671,31.329,0,30.5,0z M29,28.999H3V3
			h26V28.999z M6,13.5c0.828,0,1.5-0.672,1.5-1.5v-4.5H12c0.828,0,1.5-0.671,1.5-1.5S12.828,4.5,12,4.5H4.5V12
			C4.5,12.828,5.172,13.5,6,13.5z"/>
	</g>
</g>
</svg>
